<svg id="Layer_1" data-name="Layer 1" xmlns="http://www.w3.org/2000/svg" viewBox="0 0 72.74 48.55"><defs><style>.cls-1{fill:#fff;}</style></defs><path class="cls-1" d="M12.48,44.7a35.1,35.1,0,0,1-5-9.85,34.46,34.46,0,0,1-1.7-10.58,33.61,33.61,0,0,1,1.77-10.9,35.3,35.3,0,0,1,4.94-9.52L15,5.69a30,30,0,0,0-4.42,8.79,32.84,32.84,0,0,0-1.47,9.79,33.49,33.49,0,0,0,.37,5.16,28.27,28.27,0,0,0,1.1,4.62,31.42,31.42,0,0,0,1.84,4.39c.74,1.44,1.6,3,2.58,4.51Z"/><path class="cls-1" d="M60.25,3.85a35,35,0,0,1,5,9.84A34.56,34.56,0,0,1,67,24.27,33.62,33.62,0,0,1,65.2,35.18a35,35,0,0,1-5,9.52l-2.48-1.84a30.27,30.27,0,0,0,4.42-8.79,32.86,32.86,0,0,0,1.47-9.8,33.35,33.35,0,0,0-.37-5.15,29.34,29.34,0,0,0-1.1-4.62,31.42,31.42,0,0,0-1.84-4.39Q59.24,7.94,57.77,5.6Z"/><polygon class="cls-1" points="16.62 12.95 28.13 24.46 16.62 35.97 16.63 35.98 21.07 35.98 32.58 24.46 21.07 12.95 16.62 12.95 16.62 12.95"/><polygon class="cls-1" points="35.06 26.04 25.02 35.97 25.03 35.98 29.47 35.98 36.26 29.19 56.06 29.19 56.06 26.04 39.41 26.04 35.06 26.04"/><polygon class="cls-1" points="36.26 19.74 29.47 12.95 25.02 12.95 25.02 12.95 35.06 22.89 39.41 22.89 56.06 22.89 56.06 19.74 36.26 19.74"/></svg>