<svg id="Layer_1" data-name="Layer 1" xmlns="http://www.w3.org/2000/svg" viewBox="0 0 261.54 48.55"><defs><style>.cls-1{fill:#fff;}</style></defs><polygon class="cls-1" points="19.68 37.54 17.56 35.42 28.52 24.46 17.56 13.5 19.68 11.38 32.76 24.46 19.68 37.54"/><polygon class="cls-1" points="39.26 25.96 35.12 25.96 25.56 35.42 27.68 37.54 36.26 28.96 55.12 28.96 55.12 25.96 39.26 25.96"/><polygon class="cls-1" points="36.26 19.96 27.68 11.38 25.56 13.5 35.12 22.96 39.26 22.96 55.12 22.96 55.12 19.96 36.26 19.96"/><path class="cls-1" d="M12.48,44.7a35.1,35.1,0,0,1-5-9.85,34.46,34.46,0,0,1-1.7-10.58,33.61,33.61,0,0,1,1.77-10.9,35.3,35.3,0,0,1,4.94-9.52L15,5.69a30,30,0,0,0-4.42,8.79,32.84,32.84,0,0,0-1.47,9.79,33.49,33.49,0,0,0,.37,5.16,28.27,28.27,0,0,0,1.1,4.62,31.42,31.42,0,0,0,1.84,4.39c.74,1.44,1.6,3,2.58,4.51Z"/><path class="cls-1" d="M60.25,3.85a35,35,0,0,1,5,9.84A34.56,34.56,0,0,1,67,24.27,33.62,33.62,0,0,1,65.2,35.18a35,35,0,0,1-5,9.52l-2.48-1.84a30.27,30.27,0,0,0,4.42-8.79,32.86,32.86,0,0,0,1.47-9.8,33.35,33.35,0,0,0-.37-5.15,29.34,29.34,0,0,0-1.1-4.62,31.42,31.42,0,0,0-1.84-4.39Q59.24,7.94,57.77,5.6Z"/><path class="cls-1" d="M110.08,30.1a13.09,13.09,0,0,1-4.16,8.7q-3.51,3.06-9.32,3.06a12.52,12.52,0,0,1-10.09-4.51q-3.8-4.51-3.8-12.09V21.84a20.25,20.25,0,0,1,1.77-8.71,13.29,13.29,0,0,1,5-5.78,14,14,0,0,1,7.52-2A12.82,12.82,0,0,1,106.1,8.5a13.22,13.22,0,0,1,4,8.75h-4.71c-.41-2.84-1.29-4.89-2.65-6.17A8,8,0,0,0,97,9.17a8.37,8.37,0,0,0-7,3.33Q87.43,15.82,87.43,22V25.4q0,5.79,2.41,9.21A7.81,7.81,0,0,0,96.6,38a9,9,0,0,0,6-1.77q2.09-1.77,2.77-6.16Z"/><path class="cls-1" d="M112.92,27.92a15.59,15.59,0,0,1,1.53-7,11.32,11.32,0,0,1,4.25-4.78,11.48,11.48,0,0,1,6.21-1.69,11.14,11.14,0,0,1,8.73,3.74Q137,21.95,137,28.14v.32a15.66,15.66,0,0,1-1.48,6.92,11.22,11.22,0,0,1-4.22,4.78,11.76,11.76,0,0,1-6.31,1.7,11.1,11.1,0,0,1-8.7-3.73q-3.35-3.74-3.34-9.89Zm4.54.54a11.32,11.32,0,0,0,2,7.06,6.91,6.91,0,0,0,10.93,0q2-2.7,2-7.56a11.26,11.26,0,0,0-2.06-7,6.86,6.86,0,0,0-10.88,0C118.15,22.62,117.46,25.16,117.46,28.46Z"/><path class="cls-1" d="M157.49,41.38a9.45,9.45,0,0,1-.63-2.79,10.09,10.09,0,0,1-7.52,3.27,9.3,9.3,0,0,1-6.41-2.21,7.13,7.13,0,0,1-2.5-5.6,7.45,7.45,0,0,1,3.14-6.41q3.13-2.28,8.82-2.28h4.4V23.29a5.11,5.11,0,0,0-1.42-3.78,5.71,5.71,0,0,0-4.17-1.4,6.61,6.61,0,0,0-4.06,1.22,3.59,3.59,0,0,0-1.63,3H141a6.22,6.22,0,0,1,1.4-3.82,9.56,9.56,0,0,1,3.81-2.91,12.72,12.72,0,0,1,5.28-1.08,10.47,10.47,0,0,1,7.16,2.28A8.25,8.25,0,0,1,161.3,23V35.2a14.9,14.9,0,0,0,.93,5.79v.39ZM150,37.93a7.86,7.86,0,0,0,4-1.1A6.63,6.63,0,0,0,156.79,34V28.56h-3.54q-8.31,0-8.3,4.86a4.13,4.13,0,0,0,1.41,3.32A5.45,5.45,0,0,0,150,37.93Z"/><path class="cls-1" d="M173.29,41.38h-4.52V3.88h4.52Z"/><path class="cls-1" d="M186.64,8.56V15h4.94v3.49h-4.94v16.4a3.68,3.68,0,0,0,.66,2.39,2.78,2.78,0,0,0,2.25.79,11.31,11.31,0,0,0,2.15-.29v3.64a13.36,13.36,0,0,1-3.47.48A5.61,5.61,0,0,1,183.67,40a7.83,7.83,0,0,1-1.54-5.2V18.45h-4.81V15h4.81V8.56Z"/><path class="cls-1" d="M193.92,27.92a15.59,15.59,0,0,1,1.52-7,11.32,11.32,0,0,1,4.25-4.78,11.48,11.48,0,0,1,6.21-1.69,11.14,11.14,0,0,1,8.73,3.74Q218,21.95,218,28.14v.32a15.79,15.79,0,0,1-1.47,6.92,11.31,11.31,0,0,1-4.23,4.78,11.76,11.76,0,0,1-6.31,1.7,11.1,11.1,0,0,1-8.7-3.73q-3.33-3.74-3.33-9.89Zm4.54.54a11.38,11.38,0,0,0,2,7.06,6.91,6.91,0,0,0,10.93,0q2-2.7,2-7.56a11.26,11.26,0,0,0-2.07-7,6.55,6.55,0,0,0-5.48-2.7,6.48,6.48,0,0,0-5.39,2.66Q198.46,23.51,198.46,28.46Z"/><path class="cls-1" d="M226.65,15l.15,3.32a9.61,9.61,0,0,1,7.91-3.81q8.37,0,8.44,9.45V41.38h-4.51V23.9a6.08,6.08,0,0,0-1.31-4.23,5.22,5.22,0,0,0-4-1.37,6.54,6.54,0,0,0-3.86,1.18,7.92,7.92,0,0,0-2.59,3.07V41.38h-4.51V15Z"/></svg>