<svg id="Layer_1" data-name="Layer 1" xmlns="http://www.w3.org/2000/svg" viewBox="0 0 72.74 48.55"><defs><style>.cls-1{fill:#636466;}</style></defs><polygon class="cls-1" points="19.68 37.54 17.56 35.42 28.52 24.46 17.56 13.5 19.68 11.38 32.76 24.46 19.68 37.54"/><polygon class="cls-1" points="39.26 25.96 35.12 25.96 25.56 35.42 27.68 37.54 36.26 28.96 55.12 28.96 55.12 25.96 39.26 25.96"/><polygon class="cls-1" points="36.26 19.96 27.68 11.38 25.56 13.5 35.12 22.96 39.26 22.96 55.12 22.96 55.12 19.96 36.26 19.96"/><path class="cls-1" d="M12.48,44.7a35.1,35.1,0,0,1-5-9.85,34.46,34.46,0,0,1-1.7-10.58,33.61,33.61,0,0,1,1.77-10.9,35.3,35.3,0,0,1,4.94-9.52L15,5.69a30,30,0,0,0-4.42,8.79,32.84,32.84,0,0,0-1.47,9.79,33.49,33.49,0,0,0,.37,5.16,28.27,28.27,0,0,0,1.1,4.62,31.42,31.42,0,0,0,1.84,4.39c.74,1.44,1.6,3,2.58,4.51Z"/><path class="cls-1" d="M60.25,3.85a35,35,0,0,1,5,9.84A34.56,34.56,0,0,1,67,24.27,33.62,33.62,0,0,1,65.2,35.18a35,35,0,0,1-5,9.52l-2.48-1.84a30.27,30.27,0,0,0,4.42-8.79,32.86,32.86,0,0,0,1.47-9.8,33.35,33.35,0,0,0-.37-5.15,29.34,29.34,0,0,0-1.1-4.62,31.42,31.42,0,0,0-1.84-4.39Q59.24,7.94,57.77,5.6Z"/></svg>